<?xml version="1.0" encoding="UTF-8" standalone="no"?>
<!-- Created with Inkscape (http://www.inkscape.org/) -->

<svg
   xmlns:dc="http://purl.org/dc/elements/1.1/"
   xmlns:cc="http://creativecommons.org/ns#"
   xmlns:rdf="http://www.w3.org/1999/02/22-rdf-syntax-ns#"
   xmlns:svg="http://www.w3.org/2000/svg"
   xmlns="http://www.w3.org/2000/svg"
   xmlns:sodipodi="http://sodipodi.sourceforge.net/DTD/sodipodi-0.dtd"
   xmlns:inkscape="http://www.inkscape.org/namespaces/inkscape"
   width="22"
   height="22"
   viewBox="0 0 5.8208332 5.8208335"
   version="1.1"
   id="svg8"
   inkscape:version="0.92.2 2405546, 2018-03-11"
   sodipodi:docname="megauptodate.svg">
  <defs
     id="defs2" />
  <sodipodi:namedview
     id="base"
     pagecolor="#ffffff"
     bordercolor="#666666"
     borderopacity="1.0"
     inkscape:pageopacity="0.0"
     inkscape:pageshadow="2"
     inkscape:zoom="22.627417"
     inkscape:cx="-11.839699"
     inkscape:cy="6.7400178"
     inkscape:document-units="mm"
     inkscape:current-layer="layer1"
     showgrid="false"
     units="px"
     inkscape:window-width="2560"
     inkscape:window-height="1378"
     inkscape:window-x="0"
     inkscape:window-y="34"
     inkscape:window-maximized="1" />
  <metadata
     id="metadata5">
    <rdf:RDF>
      <cc:Work
         rdf:about="">
        <dc:format>image/svg+xml</dc:format>
        <dc:type
           rdf:resource="http://purl.org/dc/dcmitype/StillImage" />
        <dc:title></dc:title>
      </cc:Work>
    </rdf:RDF>
  </metadata>
  <g
     inkscape:label="Layer 1"
     inkscape:groupmode="layer"
     id="layer1"
     transform="translate(0,-291.17915)">
    <path
       inkscape:connector-curvature="0"
       id="circle11"
       d="m 2.6473835,291.44373 a 2.6458333,2.6458333 0 0 0 -2.64583321,2.64584 2.6458333,2.6458333 0 0 0 2.64583321,2.64583 2.6458333,2.6458333 0 0 0 2.6458333,-2.64583 2.6458333,2.6458333 0 0 0 -2.6458333,-2.64584 z m 1.0164754,1.65313 h 0.2268596 a 0.079375,0.079375 0 0 1 0.079582,0.0796 v 1.82573 a 0.079375,0.079375 0 0 1 -0.079582,0.0796 H 3.5584391 a 0.079375,0.079375 0 0 1 -0.079582,-0.0796 v -1.03766 a 0.00978958,0.00978958 0 0 0 0,-0.003 0.00978958,0.00978958 0 0 0 -0.00206,-0.004 0.00978958,0.00978958 0 0 0 -5.292e-4,-5.3e-4 0.00978958,0.00978958 0 0 0 -0.00156,-0.002 0.00978958,0.00978958 0 0 0 -0.00156,-10e-4 0.00978958,0.00978958 0 0 0 -0.00672,0 0.00978958,0.00978958 0 0 0 -0.00362,0.002 0.00978958,0.00978958 0 0 0 -5.292e-4,5.3e-4 l -0.7053834,0.71468 a 0.15531041,0.15531041 0 0 1 -0.2216919,0 L 1.830896,293.95727 a 0.00978958,0.00978958 0 0 0 -5.16e-4,-5.2e-4 0.00978958,0.00978958 0 0 0 -0.00258,-0.002 0.00978958,0.00978958 0 0 0 -0.00568,-5.2e-4 0.00978958,0.00978958 0 0 0 -0.00362,0.002 0.00978958,0.00978958 0 0 0 -0.00155,10e-4 0.00978958,0.00978958 0 0 0 -0.00103,0.002 0.00978958,0.00978958 0 0 0 -0.00155,0.004 0.00978958,0.00978958 0 0 0 0,0.002 v 1.03766 a 0.079375,0.079375 0 0 1 -0.07958,0.0796 H 1.4035319 a 0.079375,0.079375 0 0 1 -0.079065,-0.0796 v -1.82573 a 0.079375,0.079375 0 0 1 0.079065,-0.0791 h 0.227893 a 0.15583958,0.15583958 0 0 1 0.1111044,0.0465 l 0.8779826,0.8878 a 0.03889375,0.03889375 0 0 0 0.05581,0 l 0.8769493,-0.88832 a 0.15583958,0.15583958 0 0 1 0.1105873,-0.0465 z"
       style="fill:#cccccc;fill-opacity:1;stroke-width:0.26458332" />
    <path
       inkscape:connector-curvature="0"
       id="M-3"
       style="fill:#ffffff;fill-rule:evenodd;stroke-width:0.26305526"
       d="m 10.96715,297.2346 0.701305,-0.71025 a 0.00973304,0.00973304 0 0 1 0.01657,0.007 v 0.10786 a 1.6951281,1.6951281 0 0 1 0.487178,-0.19887 v -0.6921 a 0.07891658,0.07891658 0 0 0 -0.07892,-0.0789 h -0.226754 a 0.15493955,0.15493955 0 0 0 -0.11022,0.0463 l -0.873081,0.88255 a 0.03840607,0.03840607 0 0 1 -0.05498,0 l -0.870713,-0.88255 a 0.15493955,0.15493955 0 0 0 -0.1102202,-0.0463 H 9.6205702 a 0.07891658,0.07891658 0 0 0 -0.078917,0.0789 v 1.81508 a 0.07891658,0.07891658 0 0 0 0.078917,0.0789 h 0.3303974 a 0.07891658,0.07891658 0 0 0 0.078916,-0.0789 v -1.0317 a 0.00973304,0.00973304 0 0 1 0.01552,-0.007 l 0.701306,0.71025 a 0.15441344,0.15441344 0 0 0 0.22044,0 z" />
  </g>
</svg>
