<?xml version="1.0" encoding="UTF-8" standalone="no"?>
<!-- Created with Inkscape (http://www.inkscape.org/) -->

<svg
   xmlns:dc="http://purl.org/dc/elements/1.1/"
   xmlns:cc="http://creativecommons.org/ns#"
   xmlns:rdf="http://www.w3.org/1999/02/22-rdf-syntax-ns#"
   xmlns:svg="http://www.w3.org/2000/svg"
   xmlns="http://www.w3.org/2000/svg"
   xmlns:sodipodi="http://sodipodi.sourceforge.net/DTD/sodipodi-0.dtd"
   xmlns:inkscape="http://www.inkscape.org/namespaces/inkscape"
   width="22"
   height="22"
   viewBox="0 0 5.8208332 5.8208335"
   version="1.1"
   id="svg8"
   inkscape:version="0.92.2 2405546, 2018-03-11"
   sodipodi:docname="megapaused.svg">
  <defs
     id="defs2" />
  <sodipodi:namedview
     id="base"
     pagecolor="#ffffff"
     bordercolor="#666666"
     borderopacity="1.0"
     inkscape:pageopacity="0.0"
     inkscape:pageshadow="2"
     inkscape:zoom="16"
     inkscape:cx="19.478358"
     inkscape:cy="0.087389256"
     inkscape:document-units="mm"
     inkscape:current-layer="layer1"
     showgrid="false"
     units="px"
     inkscape:window-width="2560"
     inkscape:window-height="1378"
     inkscape:window-x="0"
     inkscape:window-y="34"
     inkscape:window-maximized="1" />
  <metadata
     id="metadata5">
    <rdf:RDF>
      <cc:Work
         rdf:about="">
        <dc:format>image/svg+xml</dc:format>
        <dc:type
           rdf:resource="http://purl.org/dc/dcmitype/StillImage" />
        <dc:title></dc:title>
      </cc:Work>
    </rdf:RDF>
  </metadata>
  <g
     inkscape:label="Layer 1"
     inkscape:groupmode="layer"
     id="layer1"
     transform="translate(0,-291.17915)">
    <path
       style="fill:#cccccc;fill-opacity:1;fill-rule:evenodd;stroke-width:0.9936406"
       d="M 9.7714844 1.0019531 A 9.9999999 9.9999999 0 1 0 11.732422 20.849609 A 6.4258745 6.4258745 0 0 1 10.0625 16.529297 L 10.0625 16.527344 A 6.4517087 6.4517087 0 0 1 13.191406 11 L 13.191406 10.998047 L 13.191406 10.861328 L 13.191406 10.591797 A 0.036764674 0.036764674 0 0 0 13.189453 10.578125 A 0.036764674 0.036764674 0 0 0 13.183594 10.568359 A 0.036764674 0.036764674 0 0 1 13.181641 10.566406 A 0.036764674 0.036764674 0 0 0 13.175781 10.560547 A 0.036764674 0.036764674 0 0 0 13.158203 10.554688 A 0.036764674 0.036764674 0 0 0 13.136719 10.558594 A 0.036764674 0.036764674 0 0 0 13.130859 10.5625 A 0.036764674 0.036764674 0 0 1 13.128906 10.564453 L 10.480469 13.248047 L 10.480469 13.25 A 0.58326709 0.58326709 0 0 1 9.6464844 13.25 L 6.9980469 10.566406 A 0.036764674 0.036764674 0 0 0 6.9863281 10.560547 A 0.036764674 0.036764674 0 0 0 6.9648438 10.560547 A 0.036764674 0.036764674 0 0 0 6.9492188 10.570312 A 0.036764674 0.036764674 0 0 0 6.9453125 10.576172 A 0.036764674 0.036764674 0 0 0 6.9394531 10.59375 L 6.9394531 14.490234 A 0.29809221 0.29809221 0 0 1 6.640625 14.787109 L 5.3925781 14.787109 A 0.29809221 0.29809221 0 0 1 5.0957031 14.490234 L 5.0957031 7.6328125 A 0.29809221 0.29809221 0 0 1 5.3925781 7.3359375 L 6.25 7.3359375 A 0.58525436 0.58525436 0 0 1 6.6660156 7.5097656 L 9.9550781 10.84375 A 0.14507153 0.14507153 0 0 0 10.162109 10.84375 L 13.460938 7.5097656 A 0.58525436 0.58525436 0 0 1 13.876953 7.3359375 L 14.734375 7.3359375 A 0.29809221 0.29809221 0 0 1 15.03125 7.6328125 L 15.03125 7.9023438 L 15.03125 10.248047 A 6.4517087 6.4517087 0 0 1 20 11.089844 L 20 11.0625 A 9.9999999 9.9999999 0 0 0 9.7714844 1.0019531 z "
       transform="matrix(0.26458333,0,0,0.26458333,0,291.17915)"
       id="O1" />
    <path
       inkscape:connector-curvature="0"
       id="O2"
       style="opacity:0.7;fill:#cccccc;fill-opacity:1;fill-rule:evenodd;stroke-width:0.26305524"
       d="m 2.9272255,295.55318 a 1.4468039,1.4468039 0 1 0 1.4468036,-1.4468 1.4468039,1.4468039 0 0 0 -1.4468036,1.4468 z" />
    <path
       inkscape:connector-curvature="0"
       id="M-3"
       style="fill:#ffffff;fill-rule:evenodd;stroke-width:0.26305526"
       d="m 10.96715,297.2346 0.701305,-0.71025 a 0.00973304,0.00973304 0 0 1 0.01657,0.007 v 0.10786 a 1.6951281,1.6951281 0 0 1 0.487178,-0.19887 v -0.6921 a 0.07891658,0.07891658 0 0 0 -0.07892,-0.0789 h -0.226754 a 0.15493955,0.15493955 0 0 0 -0.11022,0.0463 l -0.873081,0.88255 a 0.03840607,0.03840607 0 0 1 -0.05498,0 l -0.870713,-0.88255 a 0.15493955,0.15493955 0 0 0 -0.1102202,-0.0463 H 9.6205702 a 0.07891658,0.07891658 0 0 0 -0.078917,0.0789 v 1.81508 a 0.07891658,0.07891658 0 0 0 0.078917,0.0789 h 0.3303974 a 0.07891658,0.07891658 0 0 0 0.078916,-0.0789 v -1.0317 a 0.00973304,0.00973304 0 0 1 0.01552,-0.007 l 0.701306,0.71025 a 0.15441344,0.15441344 0 0 0 0.22044,0 z" />
    <path
       id="path14"
       d="M 3.9794465,296.21082 H 3.7163912 v -1.31528 h 0.2630553 z m 1.052221,0 H 4.7686122 v -1.31528 h 0.2630553 z"
       style="fill:#ffffff;fill-rule:evenodd;stroke-width:0.26305526"
       inkscape:connector-curvature="0" />
  </g>
</svg>
